<?xml version="1.0" encoding="utf-8"?>
<!-- Generator: Adobe Illustrator 16.0.0, SVG Export Plug-In . SVG Version: 6.00 Build 0)  -->
<!DOCTYPE svg PUBLIC "-//W3C//DTD SVG 1.1//EN" "http://www.w3.org/Graphics/SVG/1.1/DTD/svg11.dtd">
<svg version="1.1" id="Layer_1" xmlns="http://www.w3.org/2000/svg" xmlns:xlink="http://www.w3.org/1999/xlink" x="0px" y="0px"
	 width="238.051px" height="120.125px" viewBox="165.974 -0.063 238.051 120.125"
	 enable-background="new 165.974 -0.063 238.051 120.125" xml:space="preserve">
<g>
	<g>
		<path fill="#FFFFFF" d="M218.777,37.087c-0.691-1.257-1.697-2.389-3.017-3.395c-1.383-1.005-2.892-1.823-4.589-2.389
			c-1.697-0.565-3.458-1.068-5.28-1.383c-5.469-0.817-10.561-2.577-15.338-5.343c-0.377-0.188-0.817-0.691-1.32-1.383
			c-0.44-0.691-0.691-1.383-0.691-2.011c0-2.389,0.377-4.778,1.194-7.167c0.817-2.389,1.823-4.274,3.08-5.657
			c2.012-2.263,5.595-4.211,10.812-5.909s11.063-2.515,17.601-2.515c3.897,0,6.915,0.314,9.052,0.88
			c2.137,0.565,3.206,1.508,3.206,2.766c0,2.012-0.251,3.583-0.817,4.714c-0.566,1.132-1.131,1.823-1.76,2.2
			c-0.628,0.377-1.76,0.88-3.332,1.509c-1.697,0.566-3.206,1.194-4.463,1.886c-1.257,0.628-2.326,1.257-3.206,1.886
			c-0.88,0.566-1.446,0.88-1.634,0.88c-0.251,0-0.377-0.125-0.377-0.314c0-0.44,0.503-1.132,1.446-2.075s2.137-1.76,3.583-2.451
			c1.508-0.754,2.263-1.257,2.263-1.509c0-0.377-0.817-0.503-2.452-0.503c-5.029,0-9.617,0.44-13.892,1.32
			c-4.274,0.88-7.606,2.074-10.058,3.52c-2.703,1.509-3.897,2.954-3.897,4.463c0,0.943,0.503,1.634,1.508,2.012
			c1.006,0.377,3.269,1.068,6.726,1.949c3.458,0.943,6.601,1.949,9.303,3.143c3.897,1.697,6.852,3.457,8.738,5.217
			c1.886,1.823,2.829,3.834,2.829,6.097c0,1.572-0.377,3.08-1.131,4.652c-0.754,1.571-1.823,3.017-3.269,4.274
			c-1.446,1.32-3.081,2.389-4.966,3.206c-1.571,0.691-3.583,1.32-6.034,1.886c-2.452,0.565-5.029,1.068-7.858,1.383
			s-5.532,0.503-8.109,0.503c-4.714,0-8.549-0.44-11.44-1.32c-2.892-0.88-4.337-2.263-4.337-4.085c0-0.817,0.503-2.075,1.446-3.772
			c1.006-1.697,2.137-2.892,3.458-3.457c1.194-0.44,2.263-0.754,3.394-0.817c1.069-0.063,1.635,0.063,1.635,0.377
			c0,0.062-0.063,0.188-0.126,0.251c-0.063,0.063-0.188,0.126-0.314,0.189c-0.125,0.062-0.188,0.125-0.314,0.188
			c-0.566,0.188-1.006,0.377-1.32,0.503c-0.314,0.125-0.628,0.251-0.817,0.377c-0.189,0.126-0.314,0.314-0.314,0.503
			c0,0.566,2.829,0.88,8.423,0.88c4.903,0,8.863-0.189,12.006-0.503c3.143-0.377,5.846-1.006,8.234-1.886
			C214.628,39.979,216.828,38.722,218.777,37.087z"/>
		<path fill="#FFFFFF" d="M235.246,28.79c4.086-3.709,8.109-6.538,12.006-8.36c3.897-1.823,6.852-2.703,8.989-2.703
			c0.565,0,1.068,0.251,1.571,0.691c0.503,0.503,0.88,1.006,1.131,1.634c0.314,0.629,0.44,1.069,0.44,1.383
			c0,0.502-0.188,0.817-0.565,1.068c-0.377,0.251-1.069,0.503-2.012,0.817c0.188,0.44,0.44,1.005,0.754,1.697
			c0.314,0.691,0.503,1.257,0.691,1.634c0.188,0.44,0.251,0.817,0.251,1.131c0,0.628-0.628,1.886-1.949,3.646
			c-1.32,1.76-2.263,3.08-2.766,3.897c-0.503,0.817-0.817,1.886-0.817,3.081c0,2.011,0.943,3.017,2.766,3.017
			c1.886,0,4.84-1.76,8.926-5.343v2.452c-6.852,7.606-11.755,11.44-14.709,11.44c-1.069,0-1.823-0.314-2.263-1.005
			c-0.44-0.692-0.691-1.697-0.691-3.081c0-2.137,0.754-5.217,2.326-9.303c-3.96,4.4-6.915,7.48-8.8,9.366
			c-1.949,1.886-3.52,2.766-4.777,2.766c-0.566,0-1.32-0.503-2.263-1.572c-0.88-1.006-1.697-2.389-2.389-4.023
			c-0.692-1.634-1.006-3.332-1.006-5.092c0-1.257,0.125-2.326,0.377-3.206c0.251-0.88,0.691-1.697,1.446-2.64
			C232.543,31.43,233.675,30.236,235.246,28.79z M254.67,24.327c-7.04,3.206-12.069,5.972-15.023,8.235
			c-3.018,2.263-4.463,4.589-4.463,6.978c0,0.88,0.125,1.571,0.44,2.137c0.314,0.566,0.691,0.817,1.194,0.817
			c0.314,0,0.817-0.189,1.571-0.566c2.829-1.697,5.469-3.897,7.795-6.538C248.573,32.625,251.401,28.916,254.67,24.327z"/>
		<path fill="#FFFFFF" d="M291.632,28.664c-4.777,5.28-7.166,8.989-7.166,11.063c0,1.194,0.503,1.76,1.446,1.76
			c0.754,0,1.822-0.44,3.08-1.257c1.257-0.817,3.205-2.326,5.908-4.4v2.829c-3.834,3.771-6.789,6.537-8.863,8.234
			s-3.708,2.515-5.029,2.515c-2.2,0-3.332-1.446-3.332-4.4c0-0.88,0.126-1.697,0.377-2.577c0.251-0.817,0.629-1.697,1.132-2.64
			c0.503-0.88,1.194-2.2,2.2-3.897c1.005-1.697,2.074-3.583,3.394-5.72c-1.571,0.817-3.457,2.326-5.783,4.652
			c-1.509,1.446-2.829,2.829-3.834,4.148c-1.069,1.32-2.2,2.766-3.395,4.4s-2.075,2.703-2.64,3.269
			c-0.566,0.566-1.132,0.817-1.697,0.817c-0.88,0-1.634-0.88-2.389-2.703s-1.069-3.897-1.069-6.349c0-1.509,0.189-2.64,0.503-3.521
			c0.314-0.817,1.006-2.011,2.012-3.583c1.886-2.892,3.457-4.966,4.84-6.349c1.383-1.32,2.64-2.012,3.897-2.012
			c0.88,0,1.572,0.126,2.075,0.44c0.503,0.314,0.817,0.754,0.817,1.383c0,0.251-0.063,0.565-0.251,0.88s-0.314,0.566-0.565,0.817
			c-0.189,0.251-0.629,0.692-1.257,1.446c-4.274,4.714-6.412,7.794-6.412,9.24c0,0.754,0.251,1.194,0.754,1.194
			c0.314,0,0.943-0.503,1.886-1.571c0.943-1.069,2.137-2.389,3.646-4.086c1.446-1.697,3.206-3.458,5.218-5.28
			c2.011-1.823,4.337-3.646,6.915-5.343c1.445-1.006,2.641-1.509,3.583-1.509c0.44,0,0.88,0.566,1.257,1.76
			c0.44,1.194,0.629,2.389,0.629,3.646C293.392,26.59,292.826,27.47,291.632,28.664z"/>
		<path fill="#FFFFFF" d="M308.918,14.961h1.76c1.446-2.578,2.767-4.4,3.898-5.469c1.193-1.068,2.514-1.634,3.96-1.634
			c1.445,0,2.263,0.314,2.263,1.006c0,0.314-0.566,1.194-1.76,2.64c-1.195,1.446-2.074,2.64-2.641,3.646
			c0.943,0.125,1.76,0.188,2.451,0.314c0.691,0.063,1.258,0.126,1.697,0.189c-1.57,2.892-3.457,5.783-5.783,8.8
			c-0.754-0.063-1.383-0.126-1.885-0.126c-0.504-0.062-1.006-0.062-1.572-0.125c-0.502-0.063-1.193-0.063-1.948-0.126
			c-1.446,2.326-2.703,4.463-3.709,6.349s-1.76,3.583-2.263,5.092c-0.503,1.571-0.817,3.017-0.817,4.4
			c0,1.886,0.755,2.829,2.263,2.829c1.006,0,2.389-0.566,4.023-1.635c1.635-1.068,3.897-2.766,6.663-5.029v2.703
			c-7.292,7.92-12.698,11.88-16.218,11.88c-1.194,0-2.2-0.502-2.955-1.445c-0.754-0.943-1.131-2.138-1.131-3.646
			c0-1.006,0.188-2.2,0.629-3.583c0.439-1.383,1.193-3.458,2.263-6.286c-0.378,0.314-0.755,0.628-1.069,0.943
			c-0.313,0.314-0.628,0.566-0.942,0.88c-0.314,0.251-0.565,0.503-0.942,0.817c-0.314,0.314-0.629,0.566-1.006,0.88v-2.829
			c2.828-2.389,6.285-6.538,10.309-12.572c-0.377,0-0.754-0.063-1.131-0.063s-0.755,0-1.258,0c-1.571,0-2.766,0.125-3.583,0.314
			c-0.314,0.063-0.628,0.189-0.942,0.251c-0.314,0.126-0.504,0.126-0.566,0.126c-0.125,0-0.188-0.063-0.188-0.251
			c0-0.88,0.565-2.263,1.697-4.023c0.88-1.509,1.761-2.64,2.515-3.395c0.816-0.754,1.76-1.194,2.954-1.509
			C305.209,15.086,306.844,14.961,308.918,14.961z"/>
	</g>
	<g>
		<path fill="#FFFFFF" d="M178.861,62.86l-0.817,4.086h-2.64l1.697-4.086H178.861z M182.381,62.86l-0.817,4.086h-2.64l1.697-4.086
			H182.381z"/>
		<path fill="#FFFFFF" d="M190.427,64.998h-3.96v2.137h3.457v2.012h-3.457v2.326h3.96v2.074h-6.537V62.86h6.537V64.998z"/>
		<path fill="#FFFFFF" d="M195.833,73.672c-2.326,0-4.086-1.131-4.149-3.332h2.766c0.062,0.818,0.565,1.195,1.32,1.195
			s1.257-0.377,1.257-1.006c0-1.949-5.343-0.943-5.343-4.715c0-2.012,1.634-3.143,3.897-3.143c2.326,0,3.897,1.131,4.023,3.205
			h-2.829c-0.063-0.691-0.503-1.068-1.257-1.131c-0.628,0-1.068,0.314-1.068,1.006c0,1.886,5.28,1.006,5.28,4.588
			C199.73,72.164,198.347,73.672,195.833,73.672z"/>
		<path fill="#FFFFFF" d="M200.61,62.86h8.297v2.074h-2.829v8.612h-2.577v-8.612h-2.829V62.86H200.61z"/>
		<path fill="#FFFFFF" d="M216.64,71.66h-3.96l-0.628,1.887h-2.703l3.897-10.687h3.017l3.897,10.687h-2.766L216.64,71.66z
			 M214.691,65.752l-1.32,3.896h2.64L214.691,65.752z"/>
		<path fill="#FFFFFF" d="M226.069,73.547h-4.966V62.86h4.84c2.2,0,3.458,1.068,3.458,2.766c0,1.32-0.754,2.138-1.823,2.452
			c1.257,0.251,2.075,1.383,2.075,2.576C229.589,72.415,228.269,73.547,226.069,73.547z M225.377,64.998h-1.697v2.262h1.697
			c0.88,0,1.32-0.377,1.32-1.131S226.257,64.998,225.377,64.998z M225.566,69.084h-1.886v2.389h1.948
			c0.88,0,1.383-0.378,1.383-1.133C227.012,69.586,226.446,69.084,225.566,69.084z"/>
		<path fill="#FFFFFF" d="M233.549,62.86v8.675h3.395v2.012h-6.035V62.86H233.549z"/>
		<path fill="#FFFFFF" d="M238.012,62.86h2.577v10.687h-2.577V62.86z"/>
		<path fill="#FFFFFF" d="M242.35,62.86h3.08l3.017,7.417l2.955-7.417h3.08v10.687h-2.577v-6.412l-2.389,6.412h-2.075l-2.389-6.412
			v6.412h-2.577V62.86H242.35z"/>
		<path fill="#FFFFFF" d="M262.716,64.998h-3.96v2.137h3.458v2.012h-3.458v2.326h3.96v2.074h-6.538V62.86h6.538V64.998z"/>
		<path fill="#FFFFFF" d="M273.779,62.86v10.687h-2.577l-4.337-6.601v6.601h-2.577V62.86h2.577l4.337,6.601V62.86H273.779z"/>
		<path fill="#FFFFFF" d="M274.974,62.86h8.298v2.074h-2.892v8.612h-2.577v-8.612h-2.829V62.86z"/>
		<path fill="#FFFFFF" d="M288.237,73.672c-2.325,0-4.086-1.131-4.149-3.332h2.766c0.062,0.818,0.565,1.195,1.319,1.195
			c0.755,0,1.258-0.377,1.258-1.006c0-1.949-5.343-0.943-5.343-4.715c0-2.012,1.634-3.143,3.898-3.143
			c2.325,0,3.896,1.131,4.022,3.205h-2.829c-0.062-0.691-0.502-1.068-1.257-1.131c-0.628,0-1.068,0.314-1.068,1.006
			c0,1.886,5.28,1.006,5.28,4.588C292.135,72.164,290.752,73.672,288.237,73.672z"/>
		<path fill="#FFFFFF" d="M296.598,62.86h2.577v6.411c0,1.258,0.629,2.012,1.886,2.012c1.258,0,1.887-0.754,1.887-2.012V62.86h2.576
			v6.411c0,2.955-2.074,4.4-4.525,4.4c-2.515,0-4.4-1.445-4.4-4.4V62.86L296.598,62.86z"/>
		<path fill="#FFFFFF" d="M316.775,62.86v10.687h-2.576l-4.338-6.601v6.601h-2.578V62.86h2.578l4.338,6.601V62.86H316.775z"/>
		<path fill="#FFFFFF" d="M318.473,62.86h2.578v10.687h-2.578V62.86z"/>
		<path fill="#FFFFFF" d="M322.244,62.86h8.298v2.074h-2.829v8.612h-2.576v-8.612h-2.829V62.86H322.244z"/>
		<path fill="#FFFFFF" d="M335.508,73.672c-2.326,0-4.086-1.131-4.148-3.332h2.766c0.062,0.818,0.566,1.195,1.32,1.195
			s1.258-0.377,1.258-1.006c0-1.949-5.344-0.943-5.344-4.715c0-2.012,1.635-3.143,3.897-3.143c2.325,0,3.897,1.131,4.022,3.205
			h-2.828c-0.062-0.691-0.503-1.068-1.258-1.131c-0.628,0-1.068,0.314-1.068,1.006c0,1.886,5.28,1.006,5.28,4.588
			C339.405,72.164,338.022,73.672,335.508,73.672z"/>
		<path fill="#FFFFFF" d="M340.726,66.946l0.817-4.086h2.64l-1.697,4.086H340.726z M344.183,66.946L345,62.86h2.641l-1.697,4.086
			H344.183z"/>
	</g>
	<path fill="#007AC3" d="M395.916,9.932l1.824,9.806c0,0-50.918-1.383-63.489,6.6c-1.886,1.194-5.532,5.846,3.017,7.857
		c6.287,1.446,33.128,7.606,50.854,17.727c11.692,6.663,19.173,22.693-5.595,31.179c-21.184,7.229-81.906,21.687-216.553,7.605
		c2.263-0.062,162.494-2.451,203.667-14.771c0,0,7.67-2.201,11.252-3.395c5.658-1.949,16.156-9.304-3.708-17.413
		c-10.498-4.274-13.075-4.966-42.306-13.829c-7.857-2.389-18.669-12.258-3.017-22.693C345.377,9.555,395.916,9.932,395.916,9.932z"
		/>
	<path fill="#FFFFFF" d="M404.025,86.369c0,2.83-2.326,5.219-5.028,5.219c-2.767,0-4.966-2.389-4.966-5.281
		c0-2.954,2.199-5.279,4.966-5.217C401.826,81.027,404.025,83.416,404.025,86.369z M395.037,86.182
		c-0.126,2.137,1.571,4.337,4.022,4.337c2.2,0,4.023-1.886,4.023-4.212c0-2.389-1.761-4.337-3.96-4.337
		C396.859,82.032,395.037,83.918,395.037,86.182z"/>
	<path fill="#FFFFFF" d="M396.922,83.604c1.069,0,2.075-0.062,3.08,0c0.566,0.063,1.006,0.44,1.069,1.006
		c0.126,0.629,0.188,1.258-0.503,1.697c-0.188,0.126-0.377,0.189-0.566,0.314c0.504,0.754,0.943,1.572,1.446,2.389
		c-1.194,0.252-1.194,0.252-1.697-0.754s-0.88-1.635-1.76-1.383c0,0.691,0,1.445,0,2.199c-0.378,0-0.691,0-1.069,0
		C396.922,87.25,396.922,85.427,396.922,83.604z M397.991,84.422c0,0.564,0,1.005,0,1.508c0.503,0,0.942,0.126,1.319-0.062
		c0.314-0.126,0.629-0.503,0.629-0.817c0-0.188-0.439-0.565-0.754-0.629C398.934,84.358,398.494,84.422,397.991,84.422z"/>
	<g>
		<path fill="#FFFFFF" d="M206.959,120c-0.943,0-1.823-0.125-2.577-0.439c-0.817-0.252-1.446-0.691-2.012-1.258
			c-0.565-0.566-1.005-1.194-1.32-2.012c-0.314-0.816-0.44-1.76-0.44-2.828c0-1.006,0.125-1.887,0.44-2.703
			c0.314-0.817,0.754-1.509,1.32-2.074c0.566-0.566,1.194-1.006,2.012-1.258c0.817-0.314,1.697-0.439,2.64-0.439
			c0.503,0,1.006,0,1.446,0.062s0.817,0.126,1.194,0.252c0.377,0.125,0.691,0.251,1.006,0.377c0.314,0.125,0.565,0.251,0.817,0.377
			v3.018h-0.377c-0.125-0.126-0.377-0.314-0.566-0.504c-0.251-0.188-0.503-0.377-0.817-0.564c-0.314-0.189-0.629-0.314-1.006-0.44
			s-0.88-0.188-1.257-0.188c-0.44,0-0.88,0.062-1.32,0.188s-0.817,0.377-1.132,0.691c-0.314,0.313-0.628,0.755-0.817,1.257
			c-0.188,0.503-0.314,1.194-0.314,1.887c0,0.754,0.126,1.445,0.314,1.947c0.251,0.504,0.503,0.943,0.817,1.258
			c0.314,0.314,0.754,0.503,1.132,0.629c0.44,0.125,0.817,0.188,1.257,0.188c0.377,0,0.754-0.063,1.194-0.188
			c0.44-0.126,0.754-0.252,1.068-0.503c0.251-0.188,0.503-0.314,0.754-0.503s0.44-0.314,0.566-0.503h0.314v3.017
			c-0.314,0.127-0.628,0.252-0.88,0.378s-0.566,0.251-0.88,0.313c-0.44,0.127-0.817,0.189-1.132,0.252
			C208.091,119.938,207.588,120,206.959,120z"/>
		<path fill="#FFFFFF" d="M219.343,118.742c-0.189,0.127-0.377,0.252-0.629,0.44s-0.44,0.314-0.691,0.44
			c-0.314,0.125-0.628,0.251-0.943,0.314c-0.314,0.062-0.691,0.125-1.068,0.125c-0.88,0-1.635-0.251-2.263-0.816
			c-0.628-0.566-0.88-1.258-0.88-2.138c0-0.691,0.125-1.257,0.44-1.697s0.754-0.755,1.32-1.006c0.566-0.251,1.257-0.44,2.075-0.565
			c0.817-0.126,1.697-0.188,2.577-0.252v-0.062c0-0.503-0.188-0.88-0.628-1.068c-0.44-0.189-1.069-0.314-1.886-0.314
			c-0.503,0-1.005,0.062-1.571,0.252c-0.566,0.188-0.943,0.313-1.194,0.377h-0.251v-2.264c0.314-0.062,0.817-0.188,1.571-0.314
			c0.692-0.125,1.446-0.188,2.138-0.188c1.697,0,2.954,0.251,3.708,0.816c0.754,0.566,1.131,1.383,1.131,2.515v6.411h-3.017v-1.006
			H219.343z M219.343,117.297v-1.949c-0.44,0.063-0.88,0.063-1.32,0.127c-0.503,0.062-0.817,0.125-1.068,0.188
			c-0.314,0.127-0.566,0.252-0.691,0.44c-0.189,0.188-0.251,0.44-0.251,0.691c0,0.188,0,0.378,0.062,0.503
			c0.063,0.126,0.126,0.252,0.251,0.377c0.126,0.126,0.314,0.189,0.44,0.252c0.189,0.062,0.44,0.062,0.817,0.062
			c0.314,0,0.628-0.062,0.943-0.188C218.777,117.611,219.091,117.485,219.343,117.297z"/>
		<path fill="#FFFFFF" d="M231.978,113.148h-0.251c-0.126-0.062-0.314-0.062-0.628-0.126c-0.314,0-0.503-0.063-0.692-0.063
			c-0.44,0-0.817,0-1.131,0.063s-0.691,0.126-1.068,0.314v6.349h-3.018v-9.429h3.018v1.383c0.691-0.565,1.257-0.942,1.76-1.132
			c0.503-0.188,0.943-0.251,1.383-0.251c0.126,0,0.251,0,0.377,0c0.125,0,0.251,0,0.377,0v2.892H231.978z"/>
		<path fill="#FFFFFF" d="M240.526,113.148h-0.251c-0.125-0.062-0.314-0.062-0.628-0.126c-0.314,0-0.503-0.063-0.691-0.063
			c-0.44,0-0.817,0-1.132,0.063c-0.314,0.063-0.691,0.126-1.068,0.314v6.349h-3.017v-9.429h3.017v1.383
			c0.691-0.565,1.257-0.942,1.76-1.132c0.502-0.188,0.943-0.251,1.383-0.251c0.125,0,0.251,0,0.377,0c0.126,0,0.251,0,0.377,0v2.892
			H240.526z"/>
		<path fill="#FFFFFF" d="M251.527,115.6h-6.915c0.063,0.754,0.314,1.32,0.817,1.697s1.257,0.566,2.263,0.566
			c0.629,0,1.257-0.127,1.886-0.314c0.629-0.189,1.069-0.504,1.446-0.755h0.314v2.452c-0.691,0.251-1.32,0.502-1.949,0.628
			c-0.628,0.126-1.257,0.188-2.011,0.188c-1.886,0-3.332-0.439-4.337-1.257c-1.006-0.88-1.509-2.074-1.509-3.646
			c0-1.572,0.503-2.766,1.446-3.709s2.263-1.383,3.96-1.383c1.509,0,2.703,0.377,3.458,1.193c0.754,0.755,1.131,1.887,1.131,3.332
			V115.6z M248.573,113.777c0-0.629-0.189-1.132-0.503-1.446c-0.314-0.314-0.754-0.503-1.383-0.503
			c-0.565,0-1.068,0.126-1.446,0.439c-0.377,0.314-0.565,0.818-0.628,1.446h3.96V113.777z"/>
		<path fill="#FFFFFF" d="M260.516,113.148h-0.251c-0.126-0.062-0.314-0.062-0.629-0.126c-0.314,0-0.503-0.063-0.691-0.063
			c-0.44,0-0.817,0-1.131,0.063s-0.691,0.126-1.069,0.314v6.349h-3.017v-9.429h3.017v1.383c0.692-0.565,1.257-0.942,1.76-1.132
			c0.503-0.188,0.943-0.251,1.383-0.251c0.126,0,0.251,0,0.377,0c0.125,0,0.251,0,0.377,0v2.892H260.516z"/>
		<path fill="#FFFFFF" d="M270.448,116.731c0,1.005-0.44,1.76-1.32,2.389c-0.88,0.628-2.075,0.88-3.583,0.88
			c-0.817,0-1.634-0.062-2.263-0.252c-0.628-0.188-1.257-0.314-1.634-0.502v-2.515h0.251c0.125,0.126,0.314,0.251,0.503,0.377
			s0.503,0.251,0.817,0.377c0.314,0.126,0.692,0.251,1.069,0.314s0.817,0.126,1.257,0.126c0.565,0,1.006-0.062,1.32-0.189
			c0.314-0.125,0.44-0.313,0.44-0.564c0-0.252-0.062-0.378-0.251-0.504c-0.188-0.125-0.502-0.188-0.943-0.314
			c-0.251-0.062-0.503-0.125-0.943-0.188c-0.44-0.063-0.754-0.126-1.068-0.189c-0.88-0.251-1.509-0.565-1.886-1.068
			c-0.44-0.503-0.629-1.068-0.629-1.76c0-0.881,0.44-1.635,1.32-2.264c0.88-0.628,2.011-0.879,3.52-0.879
			c0.691,0,1.383,0.062,2.012,0.188c0.628,0.126,1.131,0.314,1.508,0.44v2.389h-0.251c-0.44-0.314-0.943-0.565-1.508-0.755
			c-0.566-0.188-1.132-0.313-1.76-0.313c-0.503,0-0.88,0.062-1.257,0.188c-0.314,0.125-0.503,0.314-0.503,0.565
			s0.063,0.378,0.251,0.503c0.126,0.126,0.503,0.252,1.069,0.377c0.314,0.063,0.628,0.126,1.006,0.189
			c0.377,0.062,0.691,0.125,1.068,0.251c0.817,0.188,1.383,0.565,1.76,1.006C270.259,115.537,270.448,116.103,270.448,116.731z"/>
		<path fill="#FFFFFF" d="M287.546,119.748h-3.018v-1.006c-0.502,0.44-1.005,0.755-1.445,0.943c-0.44,0.189-1.006,0.314-1.572,0.314
			c-1.131,0-2.074-0.439-2.766-1.32c-0.692-0.88-1.006-2.074-1.006-3.583c0-0.817,0.125-1.509,0.377-2.138
			c0.251-0.628,0.566-1.131,0.943-1.57c0.377-0.44,0.817-0.755,1.383-1.006c0.565-0.252,1.068-0.377,1.634-0.377
			c0.565,0,1.006,0.062,1.383,0.188c0.377,0.126,0.754,0.252,1.131,0.44v-4.022h3.018v13.137H287.546z M284.528,117.172v-4.652
			c-0.188-0.062-0.44-0.125-0.691-0.188s-0.44-0.063-0.628-0.063c-0.817,0-1.383,0.252-1.76,0.755
			c-0.377,0.503-0.565,1.194-0.565,2.074c0,0.943,0.188,1.571,0.503,2.012c0.314,0.44,0.817,0.628,1.508,0.628
			c0.251,0,0.566-0.062,0.88-0.125C284.026,117.423,284.277,117.297,284.528,117.172z"/>
		<path fill="#FFFFFF" d="M299.74,115.6h-6.914c0.062,0.754,0.314,1.32,0.816,1.697c0.504,0.377,1.258,0.566,2.264,0.566
			c0.629,0,1.258-0.127,1.886-0.314c0.629-0.189,1.069-0.504,1.446-0.755h0.314v2.452c-0.691,0.251-1.32,0.502-1.949,0.628
			s-1.258,0.188-2.012,0.188c-1.886,0-3.332-0.439-4.338-1.257c-1.005-0.88-1.508-2.074-1.508-3.646
			c0-1.572,0.503-2.766,1.445-3.709c0.943-0.943,2.264-1.383,3.961-1.383c1.508,0,2.703,0.377,3.457,1.193
			c0.754,0.755,1.131,1.887,1.131,3.332V115.6L299.74,115.6z M296.724,113.777c0-0.629-0.188-1.132-0.503-1.446
			s-0.754-0.503-1.383-0.503c-0.566,0-1.068,0.126-1.446,0.439c-0.377,0.314-0.565,0.818-0.628,1.446h3.96V113.777z"/>
		<path fill="#FFFFFF" d="M317.971,115.789c0,1.256-0.504,2.262-1.572,3.017s-2.451,1.132-4.274,1.132
			c-1.068,0-1.948-0.062-2.702-0.252c-0.755-0.188-1.51-0.439-2.139-0.691v-3.018h0.378c0.691,0.504,1.446,0.943,2.263,1.258
			c0.817,0.314,1.635,0.439,2.389,0.439c0.189,0,0.44,0,0.754-0.062c0.314-0.062,0.566-0.062,0.755-0.188
			c0.251-0.126,0.44-0.251,0.629-0.378c0.188-0.125,0.251-0.377,0.251-0.691c0-0.251-0.125-0.502-0.377-0.691
			c-0.252-0.188-0.566-0.377-1.006-0.439c-0.503-0.126-0.943-0.188-1.508-0.314c-0.566-0.125-1.006-0.252-1.51-0.377
			c-1.068-0.314-1.822-0.817-2.263-1.383c-0.44-0.566-0.691-1.32-0.691-2.2c0-1.194,0.503-2.138,1.571-2.829
			c1.068-0.754,2.389-1.131,4.023-1.131c0.816,0,1.635,0.062,2.451,0.251c0.817,0.188,1.509,0.378,2.074,0.629v2.892h-0.314
			c-0.502-0.377-1.131-0.754-1.885-1.006c-0.755-0.252-1.51-0.377-2.264-0.377c-0.251,0-0.565,0-0.816,0.062
			c-0.252,0.062-0.504,0.126-0.755,0.188c-0.188,0.063-0.377,0.188-0.565,0.378c-0.126,0.188-0.252,0.377-0.252,0.564
			c0,0.314,0.126,0.566,0.377,0.755c0.252,0.188,0.755,0.314,1.446,0.503c0.44,0.126,0.88,0.188,1.319,0.252
			c0.441,0.062,0.881,0.188,1.384,0.377c0.942,0.314,1.697,0.754,2.138,1.257C317.719,114.217,317.971,114.971,317.971,115.789z"/>
		<path fill="#FFFFFF" d="M325.765,118.742c-0.188,0.127-0.377,0.252-0.628,0.44c-0.252,0.188-0.44,0.314-0.691,0.44
			c-0.314,0.125-0.629,0.251-0.943,0.314c-0.314,0.062-0.691,0.125-1.068,0.125c-0.881,0-1.635-0.251-2.264-0.816
			c-0.629-0.566-0.88-1.258-0.88-2.138c0-0.691,0.126-1.257,0.44-1.697s0.754-0.755,1.32-1.006c0.565-0.251,1.257-0.44,2.074-0.565
			c0.816-0.126,1.697-0.188,2.577-0.252v-0.062c0-0.503-0.188-0.88-0.629-1.068c-0.44-0.189-1.068-0.314-1.886-0.314
			c-0.503,0-1.006,0.062-1.571,0.252c-0.565,0.188-0.942,0.313-1.194,0.377h-0.252v-2.264c0.314-0.062,0.817-0.188,1.572-0.314
			c0.691-0.125,1.445-0.188,2.137-0.188c1.697,0,2.955,0.251,3.709,0.816c0.754,0.503,1.131,1.383,1.131,2.515v6.411h-3.017v-1.006
			H325.765z M325.765,117.297v-1.949c-0.44,0.063-0.88,0.063-1.319,0.127c-0.504,0.062-0.818,0.125-1.069,0.188
			c-0.313,0.127-0.565,0.252-0.691,0.44c-0.188,0.188-0.251,0.44-0.251,0.691c0,0.188,0,0.378,0.062,0.503
			c0.062,0.126,0.125,0.252,0.252,0.377c0.125,0.126,0.314,0.189,0.439,0.252c0.188,0.062,0.439,0.062,0.817,0.062
			c0.313,0,0.628-0.062,0.942-0.188C325.262,117.611,325.514,117.485,325.765,117.297z"/>
		<path fill="#FFFFFF" d="M341.04,119.748h-3.018v-4.714c0-0.378,0-0.755-0.063-1.132c-0.062-0.377-0.125-0.629-0.188-0.816
			c-0.126-0.189-0.252-0.378-0.504-0.44c-0.188-0.126-0.502-0.126-0.879-0.126c-0.252,0-0.566,0.062-0.818,0.126
			c-0.313,0.062-0.564,0.251-0.942,0.44v6.726h-3.017v-9.429h3.017v1.068c0.565-0.44,1.069-0.754,1.571-0.943
			c0.504-0.251,1.068-0.314,1.635-0.314c1.006,0,1.822,0.314,2.389,0.881c0.566,0.565,0.88,1.508,0.88,2.64v6.034H341.04z"/>
		<path fill="#FFFFFF" d="M349.84,119.686c-0.314,0.062-0.691,0.126-1.006,0.189c-0.377,0.062-0.816,0.062-1.319,0.062
			c-1.194,0-2.075-0.252-2.641-0.691c-0.565-0.504-0.88-1.32-0.88-2.452v-4.399h-1.258v-2.075h1.258v-2.702h3.018v2.702h2.828v2.075
			h-2.828v3.331c0,0.314,0,0.628,0,0.88s0.062,0.439,0.125,0.691c0.063,0.188,0.189,0.377,0.44,0.439
			c0.188,0.127,0.503,0.189,0.88,0.189c0.126,0,0.377-0.062,0.629-0.126s0.439-0.126,0.503-0.188h0.251V119.686z"/>
		<path fill="#FFFFFF" d="M359.898,116.731c0,1.005-0.44,1.76-1.32,2.389c-0.881,0.628-2.074,0.88-3.584,0.88
			c-0.816,0-1.634-0.062-2.262-0.252c-0.629-0.188-1.258-0.314-1.635-0.502v-2.515h0.251c0.126,0.126,0.314,0.251,0.503,0.377
			c0.189,0.126,0.503,0.251,0.817,0.377s0.691,0.251,1.068,0.314c0.378,0.063,0.817,0.126,1.257,0.126
			c0.566,0,1.006-0.062,1.32-0.189c0.314-0.125,0.44-0.313,0.44-0.564c0-0.252-0.063-0.378-0.251-0.504
			c-0.189-0.125-0.504-0.188-0.943-0.314c-0.252-0.062-0.503-0.125-0.943-0.188c-0.439-0.063-0.754-0.126-1.068-0.189
			c-0.88-0.251-1.508-0.565-1.886-1.068c-0.44-0.503-0.628-1.068-0.628-1.76c0-0.881,0.439-1.635,1.319-2.264
			c0.88-0.628,2.012-0.879,3.521-0.879c0.691,0,1.383,0.062,2.012,0.188c0.629,0.126,1.131,0.314,1.508,0.44v2.389h-0.251
			c-0.44-0.314-0.942-0.565-1.509-0.755c-0.565-0.188-1.131-0.313-1.76-0.313c-0.503,0-0.881,0.062-1.258,0.188
			c-0.314,0.125-0.502,0.314-0.502,0.565s0.062,0.378,0.251,0.503c0.126,0.126,0.503,0.252,1.068,0.377
			c0.314,0.063,0.629,0.126,1.006,0.189c0.378,0.062,0.691,0.125,1.069,0.251c0.816,0.188,1.383,0.565,1.76,1.006
			C359.709,115.537,359.898,116.103,359.898,116.731z"/>
	</g>
</g>
</svg>
